<?xml version="1.0" encoding="UTF-8"?>
<svg width="258px" height="84px" viewBox="0 0 258 84" version="1.1" xmlns="http://www.w3.org/2000/svg" xmlns:xlink="http://www.w3.org/1999/xlink">
    <title>Group</title>
    <g id="Page-1" stroke="none" stroke-width="1" fill="none" fill-rule="evenodd">
        <g id="Desktop-HD-Copy-37" transform="translate(-832.000000, -283.000000)">
            <g id="Group" transform="translate(832.000000, 283.000000)">
                <path d="M37.6524688,6.9269957 L55.3682221,58.1321542 C57.0689444,63.0478858 54.807735,68.4569893 50.1144731,70.6997925 C43.9681148,73.6369975 36.7933597,75.1056 28.590208,75.1056 C20.2015236,75.1056 12.6927462,73.5698148 6.0638756,70.4982444 C1.3021561,68.2918371 -1.0157036,62.8384973 0.700206601,57.8788745 L18.3283312,6.9269957 C20.1745326,1.59078244 25.9970302,-1.23843114 31.3332434,0.607770306 C34.2974713,1.63332184 36.6269173,3.96276787 37.6524688,6.9269957 Z" id="Triangle-Copy-2" fill="#FFFFFF"></path>
                <path d="M20.4928,83.2848 L20.4928,40.344 C20.4928,30.1801933 28.7321933,21.9408 38.896,21.9408 L42.8538055,21.9408 L42.8538055,21.9408 L47.8093558,36.2544 L40.9408,36.2544 C37.5528644,36.2544 34.8064,39.0008644 34.8064,42.3888 L34.8064,46.4784 L34.8064,46.4784 L51.2954349,46.4784 L55.5454431,58.7472 L34.8064,58.7472 L34.8064,83.2848 L20.4928,83.2848 Z" id="Path" fill="#000000"></path>
                <path d="M56.0271391,59.9408474 C56.0271391,46.400693 67.1404185,36.1317074 80.7738095,36.1317074 C94.4072005,36.1317074 105.355227,46.193657 105.355227,59.6924042 C105.355227,73.315373 94.2419473,83.460137 80.6085563,83.460137 C66.9751653,83.460137 56.0271391,73.522409 56.0271391,59.9408474 Z M69.5365902,59.7752186 C69.5365902,66.6488138 74.5355003,71.3278274 80.6911829,71.3278274 C86.8881788,71.3278274 91.8457755,66.6488138 91.8457755,59.7752186 C91.8457755,52.9430306 86.8468655,48.2226098 80.6498696,48.2226098 C74.494187,48.2226098 69.5365902,52.9430306 69.5365902,59.7752186 Z M137.90185,37.1668874 L137.90185,50.127341 C135.478136,49.9065026 134.073483,49.7960834 133.687892,49.7960834 C127.366956,49.7960834 122.946433,54.2266538 122.946433,62.6323154 L122.946433,82.4663642 L110.015368,82.4663642 L110.015368,37.2082946 L122.5333,37.2082946 L122.5333,43.7920394 L122.65724,43.7920394 C125.136038,38.6161394 129.680502,36.7114082 134.348905,36.7114082 C135.009918,36.7114082 136.194233,36.8632346 137.90185,37.1668874 Z M153.79921,37.2082946 L153.79921,62.4252794 C153.79921,67.4769578 156.154069,71.1207914 161.648738,71.1207914 C167.184721,71.1207914 169.746146,67.104293 169.746146,62.4252794 L169.746146,37.2082946 L182.925091,37.2082946 L182.925091,82.4663642 L169.911399,82.4663642 L169.911399,76.834985 L169.78746,76.834985 C165.284309,83.460137 158.467614,83.3773969 157.186901,83.3773969 C145.949682,83.3773969 140.620265,74.9302538 140.620265,65.6136338 L140.620265,37.2082946 L153.79921,37.2082946 Z M206.54804,83.460137 C197.596823,83.460137 191.234574,78.8225306 187.461292,69.5473178 L199.070331,67.0628858 C201.025828,71.176001 203.463313,73.2325586 206.382786,73.2325586 C210.142297,73.2325586 211.67089,70.9965698 211.67089,69.3402818 C211.67089,67.8496226 210.67937,66.2347418 207.250366,65.448005 L201.590443,64.1643818 C192.832022,62.1768362 188.535438,57.4150082 188.535438,50.955485 C188.535438,42.7982666 195.93052,36.0903002 205.8044,36.0903002 C213.901808,36.0903002 219.933551,40.4242538 223.899628,49.092161 L212.414529,51.576593 C210.569201,48.0155738 208.393367,46.2350642 205.887027,46.2350642 C202.912469,46.2350642 200.888117,48.0155738 200.888117,50.0445266 C200.888117,51.7008146 202.127516,52.9016234 204.441061,53.3571026 L210.720684,54.6407258 C219.726984,56.4626426 224.478015,61.7627642 224.478015,68.4707306 C224.478015,75.9240266 218.528898,83.460137 206.54804,83.460137 Z M246.241865,48.6366818 L246.241865,65.8206698 C246.241865,69.3402818 248.18359,71.6176778 252.645427,71.6176778 C253.912368,71.6176778 255.454732,71.5072586 257.272517,71.2864202 L257.272517,82.0522922 C253.031018,82.7424122 250.414508,83.0874722 249.422989,83.0874722 C235.417778,83.0874722 233.06292,73.936481 233.06292,66.483185 L233.06292,48.6366818 L224.304499,48.6366818 L224.304499,37.2082946 L233.269486,37.2082946 L233.269486,23.005625 L246.241865,23.005625 L246.241865,37.2082946 L257.396457,37.2082946 L257.396457,48.6366818 L246.241865,48.6366818 Z" id="orust" fill="#000000"></path>
            </g>
        </g>
    </g>
</svg>